<svg data-v-423bf9ae="" xmlns="http://www.w3.org/2000/svg" viewBox="0 0 352.97583415171175 200" class="iconAboveSlogan"><!----><!----><!----><g data-v-423bf9ae="" id="6af2fa28-8c97-4c15-98e0-8f45688327fa" fill="black" transform="matrix(4.531722132721215,0,0,4.531722132721215,-1.6314150360517203,101.58522751809836)"><path d="M1.61 4.58L1.61 6.09L4.69 6.09L4.69 11.48C4.69 12.43 4.16 12.88 3.43 12.88C2.67 12.88 2.24 12.39 2.07 11.56L0.36 11.91C0.64 13.47 1.64 14.50 3.44 14.50C5.35 14.50 6.54 13.36 6.54 11.61L6.54 4.58ZM11.56 14.52C13.66 14.52 14.97 13.03 14.97 10.68C14.97 8.34 13.66 6.87 11.56 6.87C9.48 6.87 8.18 8.34 8.18 10.68C8.18 13.03 9.48 14.52 11.56 14.52ZM11.56 13.08C10.64 13.08 10.05 12.47 10.05 11.37L10.05 10.01C10.05 8.92 10.64 8.32 11.56 8.32C12.50 8.32 13.09 8.92 13.09 10.01L13.09 11.37C13.09 12.47 12.50 13.08 11.56 13.08ZM19.63 10.91L19.12 12.75L19.04 12.75L18.56 10.91L17.29 7.04L15.51 7.04L18.13 14.70L17.79 15.72L16.48 15.72L16.48 17.15L17.56 17.15C18.76 17.15 19.28 16.70 19.64 15.65L22.58 7.04L20.90 7.04ZM28.85 14.35L28.85 9.52C28.85 8.74 29.53 8.34 30.21 8.34C31.01 8.34 31.39 8.86 31.39 9.91L31.39 14.35L33.18 14.35L33.18 9.52C33.18 8.74 33.84 8.34 34.54 8.34C35.34 8.34 35.71 8.86 35.71 9.91L35.71 14.35L37.51 14.35L37.51 9.73C37.51 7.91 36.69 6.87 35.27 6.87C34.10 6.87 33.29 7.53 33.03 8.34L33.00 8.34C32.65 7.36 31.88 6.87 30.88 6.87C29.79 6.87 29.20 7.49 28.92 8.26L28.85 8.26L28.85 7.04L27.06 7.04L27.06 14.35ZM42.45 14.52C43.81 14.52 44.87 14 45.47 13.17L44.51 12.10C44.06 12.67 43.53 13.09 42.64 13.09C41.47 13.09 40.87 12.38 40.87 11.33L40.87 11.14L45.72 11.14L45.72 10.56C45.72 8.55 44.67 6.87 42.39 6.87C40.25 6.87 39.00 8.37 39.00 10.68C39.00 13.02 40.29 14.52 42.45 14.52ZM42.42 8.22C43.34 8.22 43.86 8.90 43.86 9.91L43.86 10.04L40.87 10.04L40.87 9.93C40.87 8.92 41.48 8.22 42.42 8.22ZM51.84 14.35L53.63 14.35L53.63 3.99L51.84 3.99L51.84 8.25L51.77 8.25C51.52 7.41 50.72 6.87 49.76 6.87C47.92 6.87 46.90 8.25 46.90 10.68C46.90 13.13 47.92 14.52 49.76 14.52C50.72 14.52 51.51 13.96 51.77 13.13L51.84 13.13ZM50.33 13.03C49.41 13.03 48.78 12.36 48.78 11.33L48.78 10.07C48.78 9.03 49.41 8.34 50.33 8.34C51.18 8.34 51.84 8.81 51.84 9.52L51.84 11.84C51.84 12.60 51.18 13.03 50.33 13.03ZM56.60 5.98C57.33 5.98 57.65 5.60 57.65 5.08L57.65 4.80C57.65 4.28 57.33 3.91 56.60 3.91C55.86 3.91 55.55 4.28 55.55 4.80L55.55 5.08C55.55 5.60 55.86 5.98 56.60 5.98ZM55.71 14.35L57.50 14.35L57.50 7.04L55.71 7.04ZM63.94 14.35L65.73 14.35L65.73 7.04L63.94 7.04L63.94 11.87C63.94 12.66 63.22 13.03 62.51 13.03C61.66 13.03 61.28 12.49 61.28 11.48L61.28 7.04L59.49 7.04L59.49 11.66C59.49 13.48 60.33 14.52 61.82 14.52C63.03 14.52 63.62 13.86 63.87 13.13L63.94 13.13ZM69.59 14.35L69.59 9.52C69.59 8.74 70.27 8.34 70.95 8.34C71.75 8.34 72.13 8.86 72.13 9.91L72.13 14.35L73.92 14.35L73.92 9.52C73.92 8.74 74.58 8.34 75.28 8.34C76.08 8.34 76.45 8.86 76.45 9.91L76.45 14.35L78.25 14.35L78.25 9.73C78.25 7.91 77.43 6.87 76.01 6.87C74.84 6.87 74.03 7.53 73.77 8.34L73.74 8.34C73.39 7.36 72.62 6.87 71.62 6.87C70.53 6.87 69.94 7.49 69.66 8.26L69.59 8.26L69.59 7.04L67.80 7.04L67.80 14.35Z"></path></g><!----><g data-v-423bf9ae="" id="f019ae8a-6829-4831-8cf3-c1d6ff53d94e" transform="matrix(1.0868111504448785,0,0,1.0868111504448785,121.74473429518693,-0.23894260335429607)" stroke="none" fill="black"><g clip-rule="evenodd"><path d="M12.983 10.59l17.018 88.223-5.872-59.049 29.021-1.892-.054-9.883L64.549 1 53.622 18.977z"></path><path d="M59.389 54.548l5.16-53.541-8.74 39.716-19.612 1.045 1.57 20.462-7.766 36.583 12.057-39.899z"></path><path d="M62.8 67.182l.549-10.453-15.979 3.755-.032 11.797-17.337 26.532 21.68-27.616zM65.711 62.394l14.841-4.731 1.509-12.532-15.899 2.095zM72.07 44.502l10.988-1.417 1.581-10.278-8.079-.373L64.549 1l8.43 30.967z"></path><path d="M87.413 31.294l1.256-9.506-9.544-2.694L64.549 1l14.483 22.437-.422 7z"></path></g></g><!----><g data-v-423bf9ae="" id="a477dff0-de87-47b7-92b6-aaf3a61cb6d5" fill="black" transform="matrix(0.8211286619899362,0,0,0.8211286619899362,44.739596288504515,218.0909631334609)"><path d="M0.59 7.91C0.59 11.31 2.95 12.87 5.54 12.87C7.32 12.87 9.10 11.90 9.14 11.59C9.31 10.29 9.37 9.70 9.37 9.66C9.37 9.56 9.32 9.52 9.16 9.51C9.10 9.51 9.04 9.49 9.00 9.49C8.89 9.49 8.83 9.53 8.81 9.70L8.62 11.33C8.61 11.45 7.50 12.24 5.94 12.24C3.81 12.24 2.10 10.29 2.10 7.94C2.10 5.42 3.53 3.54 5.53 3.54C7.38 3.54 8.72 5.01 8.72 5.17C8.72 5.29 8.67 6.40 8.67 6.45C8.67 6.59 8.71 6.64 8.97 6.64C9.17 6.64 9.24 6.62 9.24 6.44C9.24 5.73 9.30 3.92 9.30 3.67C9.30 3.47 9.18 3.44 8.97 3.44C8.75 3.44 8.72 3.50 8.72 3.67L8.72 4.05C8.72 4.16 8.68 4.16 8.55 4.06C8.27 3.86 7.29 3.04 5.63 3.04C2.79 3.04 0.59 4.96 0.59 7.91ZM17.75 3.51C17.75 3.72 17.82 3.79 18.02 3.79L18.83 3.77C18.93 3.77 18.97 6.61 18.97 8.55L18.97 10.42C18.97 11.30 18.96 12.18 18.91 12.18L18.31 12.18C18.09 12.18 18.02 12.19 18.02 12.39C18.02 12.63 18.06 12.68 18.26 12.68C18.38 12.68 19.21 12.64 19.63 12.64C20.05 12.64 20.82 12.68 21.14 12.68C21.31 12.68 21.34 12.61 21.34 12.40C21.34 12.24 21.31 12.18 21.14 12.18L20.33 12.18C20.26 12.18 20.17 9.18 20.17 8.37C20.17 8.30 20.17 8.26 20.29 8.26C20.68 8.26 21.28 8.27 21.57 8.27C23.81 8.32 23.95 10.00 23.95 11.68L23.95 12.49C23.95 12.61 24.01 12.64 24.11 12.64C24.11 12.64 25.55 12.68 26.03 12.68C26.19 12.68 26.25 12.64 26.25 12.53C26.25 12.24 26.19 12.18 26.04 12.18L25.40 12.18C25.30 12.18 25.27 12.14 25.24 11.31C25.16 8.99 23.79 8.34 22.88 8.05C22.74 8.01 22.76 8.01 22.88 7.95C23.46 7.69 24.78 6.94 24.78 5.63C24.78 3.63 23.09 3.21 21.69 3.21C21.36 3.21 20.08 3.29 19.66 3.29C19.24 3.29 18.26 3.26 18.03 3.26C17.85 3.26 17.75 3.28 17.75 3.51ZM20.17 7.80L20.17 4.40C20.17 4.05 20.20 3.68 20.24 3.68C20.45 3.65 20.73 3.65 20.96 3.65C22.26 3.65 23.51 4.47 23.51 5.82C23.51 6.99 22.96 7.57 22.30 7.88C22.26 7.90 22.22 7.90 22.15 7.90C21.67 7.88 20.96 7.88 20.36 7.87C20.19 7.87 20.17 7.85 20.17 7.80ZM33.73 12.39C33.73 12.63 33.75 12.68 33.95 12.68C34.27 12.68 35.24 12.64 35.66 12.64C36.08 12.64 40.59 12.68 40.91 12.68C41.03 12.68 41.19 12.66 41.19 12.49C41.19 12.07 41.23 11.23 41.23 10.53C41.23 10.39 41.08 10.39 40.95 10.39C40.84 10.39 40.71 10.39 40.71 10.51C40.70 11.06 40.70 11.41 40.67 11.76C40.64 12.01 40.64 12.04 40.54 12.04C40.39 12.04 37.76 12.08 36.26 12.08C36.19 12.08 36.15 10.11 36.11 8.26C36.11 8.06 36.15 8.09 36.29 8.09L38.57 8.09C39.27 8.09 39.30 8.20 39.30 8.30L39.30 9.00C39.30 9.14 39.48 9.14 39.59 9.14C39.69 9.14 39.82 9.13 39.82 9.02C39.82 8.83 39.79 8.33 39.79 7.83C39.79 7.32 39.82 6.83 39.82 6.71C39.82 6.59 39.68 6.58 39.58 6.58C39.47 6.58 39.30 6.59 39.30 6.72L39.30 7.45C39.30 7.62 38.85 7.63 38.57 7.63L36.23 7.63C36.12 7.63 36.11 7.63 36.11 7.45C36.09 6.75 36.08 6.06 36.08 5.46C36.08 5.12 36.08 3.71 36.16 3.71C37.39 3.71 39.90 3.75 39.90 3.81C39.90 3.99 39.86 4.83 39.86 4.89C39.86 5.04 39.93 5.10 40.11 5.10C40.31 5.10 40.38 5.08 40.38 4.94C40.38 3.85 40.43 3.36 40.43 3.09C40.43 2.91 40.35 2.90 40.15 2.90C39.96 2.90 39.96 2.95 39.93 3.11C39.91 3.25 39.98 3.25 39.07 3.25C38.46 3.25 36.32 3.29 35.55 3.29C35.06 3.29 34.12 3.25 34.02 3.25C33.89 3.25 33.84 3.30 33.84 3.49C33.84 3.72 33.91 3.74 34.08 3.74L34.73 3.74C34.79 3.74 34.86 4.79 34.86 5.71C34.86 5.80 34.92 8.27 34.92 9.83L34.92 11.17C34.92 11.84 34.89 12.18 34.86 12.18L34.01 12.18C33.78 12.18 33.73 12.21 33.73 12.39ZM49.06 12.39C49.06 12.63 49.06 12.68 49.25 12.68C49.42 12.68 49.74 12.64 50.32 12.64C50.93 12.64 51.48 12.68 51.63 12.68C51.80 12.68 51.80 12.61 51.80 12.40C51.80 12.24 51.80 12.18 51.63 12.18L50.55 12.18C50.55 12.18 50.54 12.18 50.54 12.17C50.55 11.87 51.32 9.90 51.67 9.02C51.74 8.83 51.76 8.79 51.97 8.79L54.80 8.79C54.94 8.79 54.94 8.81 55.01 9.03C55.27 9.77 55.99 11.89 55.99 12.17C55.99 12.18 55.97 12.18 55.97 12.18L55.20 12.18C54.98 12.18 54.96 12.19 54.96 12.39C54.96 12.63 54.98 12.68 55.15 12.68C55.47 12.68 56.34 12.64 56.76 12.64C57.18 12.64 57.85 12.68 58.06 12.68C58.20 12.68 58.21 12.61 58.21 12.40C58.21 12.24 58.20 12.18 58.06 12.18L57.57 12.18C57.47 12.18 56.45 9.34 55.89 7.78L54.21 3.07C54.19 3.00 54.12 2.94 54.04 2.94C53.91 2.94 53.82 3.16 53.73 3.35C53.58 3.71 53.34 3.84 53.23 4.13L51.74 7.57C51.56 8.01 49.85 12.18 49.73 12.18L49.31 12.18C49.08 12.18 49.06 12.19 49.06 12.39ZM51.95 8.33C51.95 8.30 51.98 8.23 52.02 8.13L53.40 4.77C53.44 4.66 53.47 4.61 53.49 4.61C53.51 4.61 53.52 4.63 53.56 4.77L54.73 8.18C54.75 8.25 54.77 8.29 54.77 8.32C54.77 8.36 54.74 8.37 54.64 8.37L52.14 8.37C51.95 8.37 51.95 8.34 51.95 8.33ZM64.30 5.01C64.30 5.17 64.48 5.17 64.61 5.17C64.76 5.17 64.81 5.15 64.82 4.97L64.93 3.89C64.95 3.81 65.49 3.75 66.25 3.75L68.24 3.75C68.29 3.75 68.32 4.35 68.32 4.97C68.32 6.43 68.26 12.18 68.14 12.18L67.27 12.18C67.05 12.18 67.00 12.19 67.00 12.39C67.00 12.63 67.02 12.68 67.21 12.68C67.54 12.68 68.52 12.64 68.94 12.64C69.36 12.64 70.29 12.68 70.62 12.68C70.78 12.68 70.81 12.61 70.81 12.40C70.81 12.24 70.78 12.18 70.62 12.18L69.62 12.18C69.59 12.18 69.59 11.76 69.59 11.31C69.59 9.56 69.68 5.96 69.68 5.92C69.69 5.18 69.69 3.75 69.79 3.75L71.40 3.75C72.11 3.75 72.94 3.78 72.94 3.85C72.94 3.99 72.90 4.90 72.90 4.97C72.90 5.12 72.97 5.17 73.15 5.17C73.35 5.17 73.42 5.17 73.42 5.03C73.42 3.93 73.47 3.40 73.47 3.14C73.47 2.94 73.39 2.94 73.19 2.94C73.04 2.94 72.98 2.98 72.97 3.16C72.97 3.23 72.32 3.28 71.48 3.28L66.49 3.28C65.83 3.28 65.02 3.28 65.02 3.21L65.02 3.07C65.02 2.94 64.89 2.94 64.79 2.94C64.57 2.94 64.54 3.00 64.53 3.19C64.47 3.89 64.30 4.97 64.30 5.01ZM81.09 12.39C81.09 12.63 81.13 12.68 81.33 12.68C81.65 12.68 82.40 12.64 83.12 12.64C83.78 12.64 84.57 12.68 84.80 12.68C84.97 12.68 84.99 12.61 84.99 12.40C84.99 12.24 84.97 12.18 84.80 12.18L83.83 12.18C83.73 12.18 83.71 9.55 83.71 7.76L83.71 5.87C83.71 5.14 83.73 3.70 83.83 3.70L84.74 3.70C84.97 3.70 84.99 3.68 84.99 3.49C84.99 3.25 84.97 3.19 84.80 3.19C84.48 3.19 83.80 3.23 83.15 3.23C82.33 3.23 81.62 3.19 81.40 3.19C81.21 3.19 81.14 3.21 81.14 3.44C81.14 3.68 81.23 3.70 81.40 3.70L82.32 3.70C82.36 3.70 82.43 4.79 82.43 5.71L82.43 7.08C82.43 8.92 82.42 12.18 82.31 12.18L81.38 12.18C81.16 12.18 81.09 12.19 81.09 12.39ZM92.47 3.51C92.47 3.75 92.57 3.77 92.74 3.77L93.17 3.77C93.25 3.77 96.04 10.99 96.08 11.07C96.57 12.18 96.67 12.99 96.88 12.99C97.15 12.99 97.20 12.67 97.48 12.26C97.64 12.04 97.72 12.01 97.87 11.66L101.11 4.06C101.22 3.81 101.21 3.77 101.57 3.77C101.79 3.77 101.86 3.75 101.86 3.56C101.86 3.32 101.82 3.26 101.63 3.26C101.49 3.26 100.95 3.30 100.53 3.30C100.11 3.30 99.29 3.26 99.06 3.26C98.87 3.26 98.81 3.29 98.81 3.51C98.81 3.75 98.94 3.77 99.11 3.77L100.10 3.77C100.17 3.77 100.18 3.81 100.18 3.95C100.18 4.63 98.50 8.72 97.78 10.63C97.64 10.99 97.55 11.17 97.51 11.17C97.47 11.17 97.37 10.98 97.23 10.60C96.66 9.10 95.52 6.01 95.00 4.49C94.92 4.27 94.84 3.93 94.84 3.79L94.84 3.77L95.82 3.77C96.04 3.77 96.11 3.75 96.11 3.56C96.11 3.32 96.07 3.26 95.87 3.26C95.55 3.26 94.47 3.30 94.05 3.30C93.63 3.30 92.92 3.26 92.74 3.26C92.55 3.26 92.47 3.28 92.47 3.51ZM109.34 12.39C109.34 12.63 109.38 12.68 109.58 12.68C109.90 12.68 110.66 12.64 111.37 12.64C112.03 12.64 112.83 12.68 113.05 12.68C113.22 12.68 113.25 12.61 113.25 12.40C113.25 12.24 113.22 12.18 113.05 12.18L112.08 12.18C111.99 12.18 111.96 9.55 111.96 7.76L111.96 5.87C111.96 5.14 111.99 3.70 112.08 3.70L112.99 3.70C113.22 3.70 113.25 3.68 113.25 3.49C113.25 3.25 113.22 3.19 113.05 3.19C112.73 3.19 112.06 3.23 111.40 3.23C110.59 3.23 109.87 3.19 109.65 3.19C109.47 3.19 109.40 3.21 109.40 3.44C109.40 3.68 109.48 3.70 109.65 3.70L110.57 3.70C110.61 3.70 110.68 4.79 110.68 5.71L110.68 7.08C110.68 8.92 110.67 12.18 110.56 12.18L109.63 12.18C109.41 12.18 109.34 12.19 109.34 12.39ZM120.88 5.01C120.88 5.17 121.06 5.17 121.18 5.17C121.34 5.17 121.38 5.15 121.39 4.97L121.51 3.89C121.52 3.81 122.07 3.75 122.82 3.75L124.81 3.75C124.87 3.75 124.89 4.35 124.89 4.97C124.89 6.43 124.84 12.18 124.71 12.18L123.84 12.18C123.62 12.18 123.58 12.19 123.58 12.39C123.58 12.63 123.59 12.68 123.79 12.68C124.11 12.68 125.09 12.64 125.51 12.64C125.93 12.64 126.87 12.68 127.19 12.68C127.36 12.68 127.39 12.61 127.39 12.40C127.39 12.24 127.36 12.18 127.19 12.18L126.20 12.18C126.17 12.18 126.17 11.76 126.17 11.31C126.17 9.56 126.25 5.96 126.25 5.92C126.27 5.18 126.27 3.75 126.36 3.75L127.97 3.75C128.69 3.75 129.51 3.78 129.51 3.85C129.51 3.99 129.47 4.90 129.47 4.97C129.47 5.12 129.54 5.17 129.72 5.17C129.92 5.17 129.99 5.17 129.99 5.03C129.99 3.93 130.05 3.40 130.05 3.14C130.05 2.94 129.96 2.94 129.77 2.94C129.61 2.94 129.56 2.98 129.54 3.16C129.54 3.23 128.90 3.28 128.06 3.28L123.06 3.28C122.40 3.28 121.59 3.28 121.59 3.21L121.59 3.07C121.59 2.94 121.46 2.94 121.37 2.94C121.14 2.94 121.11 3.00 121.10 3.19C121.04 3.89 120.88 4.97 120.88 5.01ZM137.38 3.44C137.38 3.68 137.47 3.70 137.63 3.70L138.04 3.70C138.17 3.70 140.42 7.74 140.83 8.50C140.88 8.60 140.92 8.65 140.92 8.81C140.92 10.50 140.91 12.18 140.78 12.18L140.07 12.18C139.85 12.18 139.80 12.19 139.80 12.39C139.80 12.63 139.82 12.68 140.01 12.68C140.21 12.68 141.02 12.64 141.61 12.64C142.44 12.64 142.97 12.68 143.29 12.68C143.46 12.68 143.49 12.61 143.49 12.40C143.49 12.24 143.46 12.18 143.29 12.18L142.32 12.18C142.23 12.18 142.20 9.72 142.20 8.22C142.20 8.18 142.20 8.15 142.24 8.09C142.79 7.22 144.73 3.70 144.80 3.70L145.28 3.70C145.45 3.70 145.54 3.68 145.54 3.44C145.54 3.22 145.46 3.19 145.28 3.19C145.05 3.19 144.82 3.23 144.21 3.23C143.63 3.23 143.29 3.19 143.12 3.19C142.93 3.19 142.88 3.25 142.88 3.49C142.88 3.68 142.95 3.70 143.18 3.70L143.91 3.70C143.92 3.70 143.93 3.71 143.93 3.74C143.93 4.05 142.37 6.99 141.99 7.71C141.88 7.92 141.88 7.88 141.76 7.67C141.36 6.89 140.07 4.56 139.78 3.85C139.72 3.71 139.71 3.70 139.89 3.70L140.71 3.70C140.94 3.70 140.97 3.68 140.97 3.49C140.97 3.25 140.92 3.19 140.77 3.19C140.53 3.19 139.92 3.23 139.12 3.23C138.31 3.23 137.82 3.19 137.63 3.19C137.45 3.19 137.38 3.21 137.38 3.44ZM162.82 12.39C162.82 12.63 162.82 12.68 163.02 12.68C163.18 12.68 163.51 12.64 164.08 12.64C164.70 12.64 165.24 12.68 165.40 12.68C165.56 12.68 165.56 12.61 165.56 12.40C165.56 12.24 165.56 12.18 165.40 12.18L164.32 12.18C164.32 12.18 164.30 12.18 164.30 12.17C164.32 11.87 165.09 9.90 165.44 9.02C165.51 8.83 165.52 8.79 165.73 8.79L168.56 8.79C168.70 8.79 168.70 8.81 168.77 9.03C169.04 9.77 169.75 11.89 169.75 12.17C169.75 12.18 169.74 12.18 169.74 12.18L168.97 12.18C168.74 12.18 168.73 12.19 168.73 12.39C168.73 12.63 168.74 12.68 168.91 12.68C169.23 12.68 170.10 12.64 170.52 12.64C170.94 12.64 171.61 12.68 171.82 12.68C171.96 12.68 171.98 12.61 171.98 12.40C171.98 12.24 171.96 12.18 171.82 12.18L171.33 12.18C171.23 12.18 170.21 9.34 169.65 7.78L167.97 3.07C167.96 3.00 167.89 2.94 167.80 2.94C167.68 2.94 167.58 3.16 167.50 3.35C167.34 3.71 167.10 3.84 166.99 4.13L165.51 7.57C165.33 8.01 163.62 12.18 163.49 12.18L163.07 12.18C162.85 12.18 162.82 12.19 162.82 12.39ZM165.72 8.33C165.72 8.30 165.75 8.23 165.79 8.13L167.16 4.77C167.20 4.66 167.23 4.61 167.26 4.61C167.27 4.61 167.29 4.63 167.33 4.77L168.49 8.18C168.52 8.25 168.53 8.29 168.53 8.32C168.53 8.36 168.50 8.37 168.41 8.37L165.90 8.37C165.72 8.37 165.72 8.34 165.72 8.33ZM178.07 5.01C178.07 5.17 178.25 5.17 178.37 5.17C178.53 5.17 178.57 5.15 178.58 4.97L178.70 3.89C178.71 3.81 179.26 3.75 180.01 3.75L182.00 3.75C182.06 3.75 182.08 4.35 182.08 4.97C182.08 6.43 182.03 12.18 181.90 12.18L181.03 12.18C180.81 12.18 180.77 12.19 180.77 12.39C180.77 12.63 180.78 12.68 180.98 12.68C181.30 12.68 182.28 12.64 182.70 12.64C183.12 12.64 184.06 12.68 184.38 12.68C184.55 12.68 184.58 12.61 184.58 12.40C184.58 12.24 184.55 12.18 184.38 12.18L183.39 12.18C183.36 12.18 183.36 11.76 183.36 11.31C183.36 9.56 183.44 5.96 183.44 5.92C183.46 5.18 183.46 3.75 183.55 3.75L185.16 3.75C185.88 3.75 186.70 3.78 186.70 3.85C186.70 3.99 186.66 4.90 186.66 4.97C186.66 5.12 186.73 5.17 186.91 5.17C187.11 5.17 187.18 5.17 187.18 5.03C187.18 3.93 187.24 3.40 187.24 3.14C187.24 2.94 187.15 2.94 186.96 2.94C186.80 2.94 186.75 2.98 186.73 3.16C186.73 3.23 186.09 3.28 185.25 3.28L180.25 3.28C179.59 3.28 178.78 3.28 178.78 3.21L178.78 3.07C178.78 2.94 178.65 2.94 178.56 2.94C178.33 2.94 178.30 3.00 178.29 3.19C178.23 3.89 178.07 4.97 178.07 5.01ZM204.65 12.39C204.65 12.63 204.69 12.68 204.89 12.68C205.21 12.68 205.97 12.64 206.68 12.64C207.34 12.64 208.14 12.68 208.36 12.68C208.53 12.68 208.56 12.61 208.56 12.40C208.56 12.24 208.53 12.18 208.36 12.18L207.40 12.18C207.30 12.18 207.27 9.55 207.27 7.76L207.27 5.87C207.27 5.14 207.30 3.70 207.40 3.70L208.31 3.70C208.53 3.70 208.56 3.68 208.56 3.49C208.56 3.25 208.53 3.19 208.36 3.19C208.04 3.19 207.37 3.23 206.71 3.23C205.90 3.23 205.18 3.19 204.96 3.19C204.78 3.19 204.71 3.21 204.71 3.44C204.71 3.68 204.79 3.70 204.96 3.70L205.88 3.70C205.93 3.70 206.00 4.79 206.00 5.71L206.00 7.08C206.00 8.92 205.98 12.18 205.87 12.18L204.95 12.18C204.72 12.18 204.65 12.19 204.65 12.39ZM216.19 5.01C216.19 5.17 216.37 5.17 216.50 5.17C216.65 5.17 216.69 5.15 216.71 4.97L216.82 3.89C216.83 3.81 217.38 3.75 218.13 3.75L220.12 3.75C220.18 3.75 220.21 4.35 220.21 4.97C220.21 6.43 220.15 12.18 220.02 12.18L219.16 12.18C218.93 12.18 218.89 12.19 218.89 12.39C218.89 12.63 218.90 12.68 219.10 12.68C219.42 12.68 220.40 12.64 220.82 12.64C221.24 12.64 222.18 12.68 222.50 12.68C222.67 12.68 222.70 12.61 222.70 12.40C222.70 12.24 222.67 12.18 222.50 12.18L221.51 12.18C221.48 12.18 221.48 11.76 221.48 11.31C221.48 9.56 221.56 5.96 221.56 5.92C221.58 5.18 221.58 3.75 221.68 3.75L223.29 3.75C224.00 3.75 224.83 3.78 224.83 3.85C224.83 3.99 224.78 4.90 224.78 4.97C224.78 5.12 224.85 5.17 225.04 5.17C225.23 5.17 225.30 5.17 225.30 5.03C225.30 3.93 225.36 3.40 225.36 3.14C225.36 2.94 225.27 2.94 225.08 2.94C224.92 2.94 224.87 2.98 224.85 3.16C224.85 3.23 224.21 3.28 223.37 3.28L218.37 3.28C217.71 3.28 216.90 3.28 216.90 3.21L216.90 3.07C216.90 2.94 216.78 2.94 216.68 2.94C216.45 2.94 216.43 3.00 216.41 3.19C216.36 3.89 216.19 4.97 216.19 5.01ZM233.38 6.27C233.38 6.40 233.58 6.57 233.65 6.57C233.79 6.57 235.14 5.25 235.14 4.23C235.14 3.86 234.54 2.98 234.39 2.98C234.15 2.98 233.69 3.60 233.69 3.91C233.69 4.31 234.36 4.68 234.36 5.00C234.36 5.43 233.38 6.22 233.38 6.27ZM243.25 5.77C243.25 9.07 248.23 8.20 248.23 10.65C248.23 11.59 247.39 12.31 246.41 12.31C245.59 12.31 243.99 11.83 243.96 11.47L243.88 10.15C243.87 9.97 243.80 9.91 243.61 9.91L243.54 9.91C243.33 9.91 243.33 10.00 243.33 10.12C243.33 10.32 243.45 11.66 243.47 12.17C243.49 12.38 244.75 12.85 246.29 12.85C247.86 12.85 249.47 11.87 249.47 10.11C249.47 6.79 244.50 7.87 244.50 5.32C244.50 4.31 245.28 3.56 246.32 3.56C247.34 3.56 248.43 4.58 248.43 4.89C248.43 5.01 248.39 5.73 248.39 5.78C248.39 5.92 248.43 5.99 248.70 5.99C248.93 5.99 248.95 5.94 248.95 5.75C248.95 5.04 249.03 3.68 249.03 3.53C249.03 3.30 248.99 3.29 248.72 3.29C248.50 3.29 248.49 3.32 248.47 3.53C248.47 3.61 248.46 3.78 248.42 3.78C248.36 3.78 248.28 3.74 248.21 3.68C247.41 3.14 246.79 3.08 246.29 3.08C244.76 3.08 243.25 4.17 243.25 5.77ZM267.23 3.51C267.23 3.75 267.27 3.79 267.48 3.79L268.41 3.77C268.46 3.77 268.46 4.47 268.46 5.24L268.46 5.96C268.46 7.70 268.45 12.18 268.34 12.18L267.67 12.18C267.44 12.18 267.37 12.19 267.37 12.39C267.37 12.63 267.39 12.68 267.58 12.68C267.71 12.68 268.69 12.64 269.11 12.64C269.53 12.64 270.40 12.68 270.72 12.68C270.89 12.68 270.91 12.61 270.91 12.40C270.91 12.24 270.89 12.18 270.72 12.18L269.72 12.18C269.68 12.18 269.67 10.60 269.67 9.58L269.67 8.65C269.67 8.57 269.67 8.54 269.77 8.54C270.16 8.54 270.48 8.58 270.98 8.58C272.97 8.58 274.37 7.83 274.37 6.01C274.37 4.09 272.89 3.22 270.97 3.22C270.65 3.22 269.56 3.29 269.14 3.29C268.90 3.29 267.71 3.26 267.48 3.26C267.30 3.26 267.23 3.28 267.23 3.51ZM269.68 8.05L269.68 4.40C269.68 4.05 269.70 3.70 269.74 3.68C269.86 3.67 270.03 3.67 270.17 3.67C271.82 3.67 273.08 4.47 273.08 5.80C273.08 7.57 271.75 8.19 270.17 8.19C269.92 8.19 269.68 8.16 269.68 8.05ZM282.13 12.39C282.13 12.63 282.16 12.68 282.35 12.68C282.67 12.68 283.64 12.64 284.06 12.64C284.48 12.64 288.99 12.68 289.31 12.68C289.44 12.68 289.59 12.66 289.59 12.49C289.59 12.07 289.63 11.23 289.63 10.53C289.63 10.39 289.48 10.39 289.35 10.39C289.24 10.39 289.11 10.39 289.11 10.51C289.10 11.06 289.10 11.41 289.07 11.76C289.04 12.01 289.04 12.04 288.95 12.04C288.79 12.04 286.16 12.08 284.66 12.08C284.59 12.08 284.55 10.11 284.51 8.26C284.51 8.06 284.55 8.09 284.69 8.09L286.97 8.09C287.67 8.09 287.70 8.20 287.70 8.30L287.70 9.00C287.70 9.14 287.88 9.14 287.99 9.14C288.09 9.14 288.22 9.13 288.22 9.02C288.22 8.83 288.19 8.33 288.19 7.83C288.19 7.32 288.22 6.83 288.22 6.71C288.22 6.59 288.08 6.58 287.98 6.58C287.87 6.58 287.70 6.59 287.70 6.72L287.70 7.45C287.70 7.62 287.25 7.63 286.97 7.63L284.63 7.63C284.52 7.63 284.51 7.63 284.51 7.45C284.49 6.75 284.48 6.06 284.48 5.46C284.48 5.12 284.48 3.71 284.56 3.71C285.80 3.71 288.30 3.75 288.30 3.81C288.30 3.99 288.26 4.83 288.26 4.89C288.26 5.04 288.33 5.10 288.51 5.10C288.71 5.10 288.78 5.08 288.78 4.94C288.78 3.85 288.83 3.36 288.83 3.09C288.83 2.91 288.75 2.90 288.55 2.90C288.36 2.90 288.36 2.95 288.33 3.11C288.32 3.25 288.39 3.25 287.48 3.25C286.86 3.25 284.72 3.29 283.95 3.29C283.46 3.29 282.52 3.25 282.42 3.25C282.30 3.25 282.24 3.30 282.24 3.49C282.24 3.72 282.31 3.74 282.48 3.74L283.14 3.74C283.19 3.74 283.26 4.79 283.26 5.71C283.26 5.80 283.32 8.27 283.32 9.83L283.32 11.17C283.32 11.84 283.29 12.18 283.26 12.18L282.41 12.18C282.18 12.18 282.13 12.21 282.13 12.39ZM297.46 12.39C297.46 12.63 297.46 12.68 297.65 12.68C297.82 12.68 298.14 12.64 298.72 12.64C299.33 12.64 299.88 12.68 300.03 12.68C300.20 12.68 300.20 12.61 300.20 12.40C300.20 12.24 300.20 12.18 300.03 12.18L298.96 12.18C298.96 12.18 298.94 12.18 298.94 12.17C298.96 11.87 299.73 9.90 300.08 9.02C300.15 8.83 300.16 8.79 300.37 8.79L303.20 8.79C303.34 8.79 303.34 8.81 303.41 9.03C303.67 9.77 304.39 11.89 304.39 12.17C304.39 12.18 304.37 12.18 304.37 12.18L303.60 12.18C303.38 12.18 303.37 12.19 303.37 12.39C303.37 12.63 303.38 12.68 303.55 12.68C303.87 12.68 304.74 12.64 305.16 12.64C305.58 12.64 306.25 12.68 306.46 12.68C306.60 12.68 306.61 12.61 306.61 12.40C306.61 12.24 306.60 12.18 306.46 12.18L305.97 12.18C305.87 12.18 304.85 9.34 304.29 7.78L302.61 3.07C302.60 3.00 302.53 2.94 302.44 2.94C302.32 2.94 302.22 3.16 302.13 3.35C301.98 3.71 301.74 3.84 301.63 4.13L300.15 7.57C299.96 8.01 298.26 12.18 298.13 12.18L297.71 12.18C297.49 12.18 297.46 12.19 297.46 12.39ZM300.36 8.33C300.36 8.30 300.38 8.23 300.43 8.13L301.80 4.77C301.84 4.66 301.87 4.61 301.90 4.61C301.91 4.61 301.92 4.63 301.97 4.77L303.13 8.18C303.16 8.25 303.17 8.29 303.17 8.32C303.17 8.36 303.14 8.37 303.04 8.37L300.54 8.37C300.36 8.37 300.36 8.34 300.36 8.33ZM314.37 12.39C314.37 12.63 314.38 12.68 314.58 12.68C314.90 12.68 315.80 12.64 316.22 12.64C316.64 12.64 317.59 12.68 317.91 12.68C318.08 12.68 318.09 12.61 318.09 12.40C318.09 12.24 318.07 12.18 317.90 12.18L316.89 12.18C316.79 12.18 316.76 10.12 316.76 8.46C316.76 8.30 316.76 8.30 316.93 8.30L317.20 8.30C317.41 8.30 317.41 8.32 317.48 8.40L320.52 12.00C320.61 12.11 320.68 12.18 320.47 12.18L320.01 12.18C319.83 12.18 319.76 12.19 319.76 12.39C319.76 12.63 319.76 12.68 319.96 12.68C320.28 12.68 320.98 12.64 321.40 12.64C321.82 12.64 322.50 12.68 322.83 12.68C322.99 12.68 322.99 12.61 322.99 12.40C322.99 12.24 322.99 12.18 322.83 12.18L322.60 12.18C322.42 12.18 322.32 12.10 322.20 11.96L318.43 7.62C318.29 7.45 318.26 7.50 318.39 7.36C318.84 6.83 321.37 3.77 321.44 3.77L322.11 3.77C322.34 3.77 322.36 3.75 322.36 3.56C322.36 3.32 322.36 3.26 322.17 3.26C321.97 3.26 321.52 3.30 321.01 3.30C320.47 3.30 320.00 3.26 319.77 3.26C319.59 3.26 319.49 3.28 319.49 3.51C319.49 3.75 319.61 3.77 319.77 3.77L320.33 3.77C320.50 3.77 320.50 3.84 320.39 3.99C319.86 4.66 317.51 7.92 317.21 7.92L316.90 7.92C316.76 7.92 316.76 7.88 316.76 7.69L316.76 5.94C316.76 5.21 316.83 3.77 316.93 3.77L317.70 3.77C317.93 3.77 317.97 3.75 317.97 3.56C317.97 3.32 317.95 3.26 317.76 3.26C317.44 3.26 316.67 3.30 316.25 3.30C315.66 3.30 315.00 3.26 314.78 3.26C314.59 3.26 314.50 3.28 314.50 3.51C314.50 3.75 314.61 3.77 314.78 3.77L315.42 3.77C315.48 3.77 315.50 4.86 315.50 5.78L315.50 9.84C315.50 11.00 315.49 12.18 315.41 12.18L314.66 12.18C314.44 12.18 314.37 12.19 314.37 12.39Z"></path></g></svg>