<svg data-v-fde0c5aa="" xmlns="http://www.w3.org/2000/svg" viewBox="0 0 300 300" class="font"><!----><defs data-v-fde0c5aa=""><!----></defs><rect data-v-fde0c5aa="" fill="#DEE5F3" x="0" y="0" width="300px" height="300px" class="logo-background-square"></rect><defs data-v-fde0c5aa=""><linearGradient data-v-fde0c5aa="" gradientTransform="rotate(25)" id="ef98cab3-33d3-48e4-9440-f6a87bddbf9b" x1="0%" y1="0%" x2="100%" y2="0%"><stop data-v-fde0c5aa="" offset="0%" stop-color="#288B58" stop-opacity="1"></stop><stop data-v-fde0c5aa="" offset="100%" stop-color="#1522F1" stop-opacity="1"></stop></linearGradient></defs><g data-v-fde0c5aa="" id="b5248981-1570-46f9-9ee9-5ee7a410953a" fill="url(#ef98cab3-33d3-48e4-9440-f6a87bddbf9b)" transform="matrix(2.8244961063542897,0,0,2.8244961063542897,38.983181361307714,120.25805608089881)"><path d="M1.61 4.58L1.61 6.09L4.69 6.09L4.69 11.48C4.69 12.43 4.16 12.88 3.43 12.88C2.67 12.88 2.24 12.39 2.07 11.56L0.36 11.91C0.64 13.47 1.64 14.50 3.44 14.50C5.35 14.50 6.54 13.36 6.54 11.61L6.54 4.58ZM11.56 14.52C13.66 14.52 14.97 13.03 14.97 10.68C14.97 8.34 13.66 6.87 11.56 6.87C9.48 6.87 8.18 8.34 8.18 10.68C8.18 13.03 9.48 14.52 11.56 14.52ZM11.56 13.08C10.64 13.08 10.05 12.47 10.05 11.37L10.05 10.01C10.05 8.92 10.64 8.32 11.56 8.32C12.50 8.32 13.09 8.92 13.09 10.01L13.09 11.37C13.09 12.47 12.50 13.08 11.56 13.08ZM19.63 10.91L19.12 12.75L19.04 12.75L18.56 10.91L17.29 7.04L15.51 7.04L18.13 14.70L17.79 15.72L16.48 15.72L16.48 17.15L17.56 17.15C18.76 17.15 19.28 16.70 19.64 15.65L22.58 7.04L20.90 7.04ZM28.85 14.35L28.85 9.52C28.85 8.74 29.53 8.34 30.21 8.34C31.01 8.34 31.39 8.86 31.39 9.91L31.39 14.35L33.18 14.35L33.18 9.52C33.18 8.74 33.84 8.34 34.54 8.34C35.34 8.34 35.71 8.86 35.71 9.91L35.71 14.35L37.51 14.35L37.51 9.73C37.51 7.91 36.69 6.87 35.27 6.87C34.10 6.87 33.29 7.53 33.03 8.34L33.00 8.34C32.65 7.36 31.88 6.87 30.88 6.87C29.79 6.87 29.20 7.49 28.92 8.26L28.85 8.26L28.85 7.04L27.06 7.04L27.06 14.35ZM42.45 14.52C43.81 14.52 44.87 14 45.47 13.17L44.51 12.10C44.06 12.67 43.53 13.09 42.64 13.09C41.47 13.09 40.87 12.38 40.87 11.33L40.87 11.14L45.72 11.14L45.72 10.56C45.72 8.55 44.67 6.87 42.39 6.87C40.25 6.87 39.00 8.37 39.00 10.68C39.00 13.02 40.29 14.52 42.45 14.52ZM42.42 8.22C43.34 8.22 43.86 8.90 43.86 9.91L43.86 10.04L40.87 10.04L40.87 9.93C40.87 8.92 41.48 8.22 42.42 8.22ZM51.84 14.35L53.63 14.35L53.63 3.99L51.84 3.99L51.84 8.25L51.77 8.25C51.52 7.41 50.72 6.87 49.76 6.87C47.92 6.87 46.90 8.25 46.90 10.68C46.90 13.13 47.92 14.52 49.76 14.52C50.72 14.52 51.51 13.96 51.77 13.13L51.84 13.13ZM50.33 13.03C49.41 13.03 48.78 12.36 48.78 11.33L48.78 10.07C48.78 9.03 49.41 8.34 50.33 8.34C51.18 8.34 51.84 8.81 51.84 9.52L51.84 11.84C51.84 12.60 51.18 13.03 50.33 13.03ZM56.60 5.98C57.33 5.98 57.65 5.60 57.65 5.08L57.65 4.80C57.65 4.28 57.33 3.91 56.60 3.91C55.86 3.91 55.55 4.28 55.55 4.80L55.55 5.08C55.55 5.60 55.86 5.98 56.60 5.98ZM55.71 14.35L57.50 14.35L57.50 7.04L55.71 7.04ZM63.94 14.35L65.73 14.35L65.73 7.04L63.94 7.04L63.94 11.87C63.94 12.66 63.22 13.03 62.51 13.03C61.66 13.03 61.28 12.49 61.28 11.48L61.28 7.04L59.49 7.04L59.49 11.66C59.49 13.48 60.33 14.52 61.82 14.52C63.03 14.52 63.62 13.86 63.87 13.13L63.94 13.13ZM69.59 14.35L69.59 9.52C69.59 8.74 70.27 8.34 70.95 8.34C71.75 8.34 72.13 8.86 72.13 9.91L72.13 14.35L73.92 14.35L73.92 9.52C73.92 8.74 74.58 8.34 75.28 8.34C76.08 8.34 76.45 8.86 76.45 9.91L76.45 14.35L78.25 14.35L78.25 9.73C78.25 7.91 77.43 6.87 76.01 6.87C74.84 6.87 74.03 7.53 73.77 8.34L73.74 8.34C73.39 7.36 72.62 6.87 71.62 6.87C70.53 6.87 69.94 7.49 69.66 8.26L69.59 8.26L69.59 7.04L67.80 7.04L67.80 14.35Z"></path></g><!----><!----></svg>